<svg width="166" height="60" viewBox="0 0 166 60" fill="none" xmlns="http://www.w3.org/2000/svg">
<path d="M36 7.4C36 7.17909 36.1791 7 36.4 7C37.2837 7 38 7.71634 38 8.6V19.4C38 20.2837 37.2837 21 36.4 21C36.1791 21 36 20.8209 36 20.6V7.4Z" fill="#6959CE"/>
<path fill-rule="evenodd" clip-rule="evenodd" d="M134.952 14.544C132.456 14.544 130.44 13.872 128.904 12.528C127.416 11.136 126.672 9.408 126.672 7.344C126.672 5.232 127.416 3.48 128.904 2.088C130.44 0.696001 132.456 0 134.952 0C137.4 0 139.368 0.696001 140.856 2.088C142.392 3.48 143.16 5.232 143.16 7.344C143.16 9.408 142.392 11.136 140.856 12.528C139.368 13.872 137.4 14.544 134.952 14.544ZM141.436 18C141.712 18 141.936 18.2239 141.936 18.5V58.18C141.936 58.4561 141.712 58.68 141.436 58.68H128.324C128.047 58.68 127.824 58.4561 127.824 58.18V18.5C127.824 18.2239 128.047 18 128.324 18H134.804C134.802 18.0138 134.801 18.0278 134.801 18.0422C134.791 18.6065 134.85 19.4762 135.25 19.9578C135.352 20.0805 135.457 20.1977 135.566 20.3028L135.411 20.8375C134.475 24.0553 134 27.3854 134 30.7319V40.7857C134 41.0787 134.107 41.362 134.301 41.5847L135.867 43.3796C136.2 43.7605 136.8 43.7605 137.133 43.3796L138.699 41.5847C138.893 41.362 139 41.0787 139 40.7857V30.7319C139 27.3854 138.525 24.0553 137.589 20.8375L137.434 20.3028C137.543 20.1977 137.648 20.0805 137.75 19.9578C138.15 19.4762 138.209 18.6065 138.199 18.0422C138.199 18.0278 138.198 18.0138 138.196 18H141.436ZM40.54 7.92C40.8161 7.92 41.04 8.14386 41.04 8.42V18.652C41.04 18.9281 40.8161 19.152 40.54 19.152H28.004C27.7279 19.152 27.504 19.3759 27.504 19.652V58.18C27.504 58.4561 27.2801 58.68 27.004 58.68H13.892C13.6159 58.68 13.392 58.4561 13.392 58.18V19.652C13.392 19.3759 13.1681 19.152 12.892 19.152H0.5C0.223858 19.152 0 18.9281 0 18.652V8.42C0 8.14386 0.223858 7.92 0.5 7.92H40.54ZM87.0891 18.288C87.3653 18.288 87.5891 18.5119 87.5891 18.788V58.18C87.5891 58.4561 87.3653 58.68 87.0891 58.68H73.9051C73.629 58.68 73.4051 58.4561 73.4051 58.18V54.5897C73.4051 54.0934 72.7229 53.8752 72.3979 54.2502C71.3307 55.4812 70.0104 56.5258 68.4371 57.384C66.3251 58.488 63.9011 59.04 61.1651 59.04C56.4611 59.04 52.7411 57.504 50.0051 54.432C47.3171 51.312 45.9731 47.088 45.9731 41.76V18.788C45.9731 18.5119 46.197 18.288 46.4731 18.288H59.5131C59.7893 18.288 60.0131 18.5119 60.0131 18.788V39.96C60.0131 42.264 60.6131 44.088 61.8131 45.432C63.0611 46.728 64.6931 47.376 66.7091 47.376C68.7731 47.376 70.4051 46.728 71.6051 45.432C72.8051 44.088 73.4051 42.264 73.4051 39.96V18.788C73.4051 18.5119 73.629 18.288 73.9051 18.288H87.0891ZM110.695 24.126C110.386 24.5076 109.732 24.2972 109.732 23.8062V18.788C109.732 18.5119 109.509 18.288 109.232 18.288H96.1205C95.8444 18.288 95.6205 18.5119 95.6205 18.788V58.18C95.6205 58.4561 95.8444 58.68 96.1205 58.68H109.232C109.509 58.68 109.732 58.4561 109.732 58.18V41.04C109.732 38.064 110.477 35.976 111.965 34.776C113.452 33.576 115.733 32.976 118.805 32.976H122.265C122.541 32.976 122.765 32.7521 122.765 32.476V18.428C122.765 18.1519 122.541 17.9271 122.265 17.9364C119.86 18.0176 117.603 18.6868 115.493 19.944C113.675 21.0266 112.076 22.4206 110.695 24.126ZM150.764 57.24C152.3 58.584 154.316 59.256 156.812 59.256C159.26 59.256 161.228 58.56 162.716 57.168C164.252 55.776 165.02 54.048 165.02 51.984C165.02 49.872 164.252 48.12 162.716 46.728C161.228 45.336 159.26 44.64 156.812 44.64C154.316 44.64 152.3 45.336 150.764 46.728C149.276 48.12 148.532 49.872 148.532 51.984C148.532 54.096 149.276 55.848 150.764 57.24Z" fill="#888888"/>
<g filter="url(#filter0_d_44_609)">
<path d="M4.94315 7.02086C4.98068 7.00465 5.02067 7 5.06155 7H13.5901C13.8284 7 14.0353 7.16554 14.1089 7.39224C14.4914 8.57085 16.0311 12 21 12C25.9689 12 27.5086 8.57085 27.8911 7.39224C27.9647 7.16554 28.1716 7 28.4099 7H36.3063C36.6476 7 36.8947 7.33638 36.8075 7.66632C36.5169 8.76503 36 11.124 36 14C36 16.876 36.5169 19.235 36.8075 20.3337C36.8947 20.6636 36.6476 21 36.3063 21H33.5C33.2239 21 33 21.2239 33 21.5V46.5498C33 46.8057 32.8092 47.0195 32.5543 47.0424C31.2139 47.1632 26.9428 47.5 21 47.5C15.0572 47.5 10.7861 47.1632 9.44571 47.0424C9.19083 47.0195 9 46.8057 9 46.5498V21.5C9 21.2239 8.77614 21 8.5 21H5.06155C5.02067 21 4.98068 20.9954 4.94315 20.9791C4.61719 20.8383 3 19.8449 3 14C3 8.15507 4.61719 7.16172 4.94315 7.02086Z" fill="#6959CE"/>
</g>
<path fill-rule="evenodd" clip-rule="evenodd" d="M20.5 34.1549C24.1754 34.1549 27.1549 31.1754 27.1549 27.5C27.1549 23.8246 24.1754 20.8451 20.5 20.8451C16.8246 20.8451 13.8451 23.8246 13.8451 27.5C13.8451 31.1754 16.8246 34.1549 20.5 34.1549ZM20.5 35C24.6421 35 28 31.6421 28 27.5C28 23.3579 24.6421 20 20.5 20C16.3579 20 13 23.3579 13 27.5C13 31.6421 16.3579 35 20.5 35Z" fill="#F8EF2F"/>
<path fill-rule="evenodd" clip-rule="evenodd" d="M27.2606 27.5C27.2606 31.2338 24.2338 34.2606 20.5 34.2606C16.7662 34.2606 13.7394 31.2338 13.7394 27.5C13.7394 23.7662 16.7662 20.7394 20.5 20.7394C24.2338 20.7394 27.2606 23.7662 27.2606 27.5ZM20.5 34.8944C24.5838 34.8944 27.8944 31.5838 27.8944 27.5C27.8944 23.4162 24.5838 20.1056 20.5 20.1056C16.4162 20.1056 13.1056 23.4162 13.1056 27.5C13.1056 31.5838 16.4162 34.8944 20.5 34.8944ZM27.1549 27.5C27.1549 31.1754 24.1754 34.1549 20.5 34.1549C16.8246 34.1549 13.8451 31.1754 13.8451 27.5C13.8451 23.8246 16.8246 20.8451 20.5 20.8451C24.1754 20.8451 27.1549 23.8246 27.1549 27.5ZM28 27.5C28 31.6421 24.6421 35 20.5 35C16.3579 35 13 31.6421 13 27.5C13 23.3579 16.3579 20 20.5 20C24.6421 20 28 23.3579 28 27.5Z" fill="#202020"/>
<path fill-rule="evenodd" clip-rule="evenodd" d="M20.5001 33.31C23.7088 33.31 26.31 30.7088 26.31 27.5001C26.31 24.2914 23.7088 21.6903 20.5001 21.6903C17.2914 21.6903 14.6903 24.2914 14.6903 27.5001C14.6903 30.7088 17.2914 33.31 20.5001 33.31ZM20.5001 34.1551C24.1756 34.1551 27.1551 31.1756 27.1551 27.5001C27.1551 23.8247 24.1756 20.8452 20.5001 20.8452C16.8247 20.8452 13.8452 23.8247 13.8452 27.5001C13.8452 31.1756 16.8247 34.1551 20.5001 34.1551Z" fill="#8B7156"/>
<path fill-rule="evenodd" clip-rule="evenodd" d="M26.3523 27.5001C26.3523 30.7322 23.7322 33.3523 20.5001 33.3523C17.2681 33.3523 14.648 30.7322 14.648 27.5001C14.648 24.2681 17.2681 21.648 20.5001 21.648C23.7322 21.648 26.3523 24.2681 26.3523 27.5001ZM20.5001 34.1128C24.1522 34.1128 27.1128 31.1522 27.1128 27.5001C27.1128 23.8481 24.1522 20.8875 20.5001 20.8875C16.8481 20.8875 13.8875 23.8481 13.8875 27.5001C13.8875 31.1522 16.8481 34.1128 20.5001 34.1128ZM26.31 27.5001C26.31 30.7088 23.7088 33.31 20.5001 33.31C17.2914 33.31 14.6903 30.7088 14.6903 27.5001C14.6903 24.2914 17.2914 21.6903 20.5001 21.6903C23.7088 21.6903 26.31 24.2914 26.31 27.5001ZM27.1551 27.5001C27.1551 31.1756 24.1756 34.1551 20.5001 34.1551C16.8247 34.1551 13.8452 31.1756 13.8452 27.5001C13.8452 23.8247 16.8247 20.8452 20.5001 20.8452C24.1756 20.8452 27.1551 23.8247 27.1551 27.5001Z" fill="#202020"/>
<path d="M26.3099 27.5C26.3099 30.7087 23.7087 33.3099 20.5 33.3099C17.2913 33.3099 14.6902 30.7087 14.6902 27.5C14.6902 24.2913 17.2913 21.6902 20.5 21.6902C23.7087 21.6902 26.3099 24.2913 26.3099 27.5Z" fill="#433123"/>
<path fill-rule="evenodd" clip-rule="evenodd" d="M20.5 33.2465C23.6737 33.2465 26.2465 30.6737 26.2465 27.5C26.2465 24.3264 23.6737 21.7536 20.5 21.7536C17.3264 21.7536 14.7536 24.3264 14.7536 27.5C14.7536 30.6737 17.3264 33.2465 20.5 33.2465ZM20.5 33.3099C23.7087 33.3099 26.3099 30.7087 26.3099 27.5C26.3099 24.2913 23.7087 21.6902 20.5 21.6902C17.2913 21.6902 14.6902 24.2913 14.6902 27.5C14.6902 30.7087 17.2913 33.3099 20.5 33.3099Z" fill="#202020"/>
<path d="M20.8168 24.4362C20.8168 24.6696 20.6276 24.8587 20.3942 24.8587C20.1609 24.8587 19.9717 24.6696 19.9717 24.4362C19.9717 24.2028 20.1609 24.0137 20.3942 24.0137C20.6276 24.0137 20.8168 24.2028 20.8168 24.4362Z" fill="#2C180D"/>
<path fill-rule="evenodd" clip-rule="evenodd" d="M20.3942 24.8165C20.6042 24.8165 20.7745 24.6462 20.7745 24.4362C20.7745 24.2262 20.6042 24.0559 20.3942 24.0559C20.1842 24.0559 20.0139 24.2262 20.0139 24.4362C20.0139 24.6462 20.1842 24.8165 20.3942 24.8165ZM20.3942 24.8587C20.6276 24.8587 20.8168 24.6696 20.8168 24.4362C20.8168 24.2028 20.6276 24.0137 20.3942 24.0137C20.1609 24.0137 19.9717 24.2028 19.9717 24.4362C19.9717 24.6696 20.1609 24.8587 20.3942 24.8587Z" fill="#151515"/>
<path d="M23.7748 27.394C23.7748 27.6273 23.5856 27.8165 23.3522 27.8165C23.1189 27.8165 22.9297 27.6273 22.9297 27.394C22.9297 27.1606 23.1189 26.9714 23.3522 26.9714C23.5856 26.9714 23.7748 27.1606 23.7748 27.394Z" fill="#2C180D"/>
<path fill-rule="evenodd" clip-rule="evenodd" d="M23.3522 27.7743C23.5622 27.7743 23.7325 27.604 23.7325 27.394C23.7325 27.1839 23.5622 27.0137 23.3522 27.0137C23.1422 27.0137 22.9719 27.1839 22.9719 27.394C22.9719 27.604 23.1422 27.7743 23.3522 27.7743ZM23.3522 27.8165C23.5856 27.8165 23.7748 27.6273 23.7748 27.394C23.7748 27.1606 23.5856 26.9714 23.3522 26.9714C23.1189 26.9714 22.9297 27.1606 22.9297 27.394C22.9297 27.6273 23.1189 27.8165 23.3522 27.8165Z" fill="#151515"/>
<path d="M20.8168 30.352C20.8168 30.5853 20.6276 30.7745 20.3942 30.7745C20.1609 30.7745 19.9717 30.5853 19.9717 30.352C19.9717 30.1186 20.1609 29.9294 20.3942 29.9294C20.6276 29.9294 20.8168 30.1186 20.8168 30.352Z" fill="#2C180D"/>
<path fill-rule="evenodd" clip-rule="evenodd" d="M20.3942 30.7323C20.6042 30.7323 20.7745 30.562 20.7745 30.352C20.7745 30.142 20.6042 29.9717 20.3942 29.9717C20.1842 29.9717 20.0139 30.142 20.0139 30.352C20.0139 30.562 20.1842 30.7323 20.3942 30.7323ZM20.3942 30.7745C20.6276 30.7745 20.8168 30.5853 20.8168 30.352C20.8168 30.1186 20.6276 29.9294 20.3942 29.9294C20.1609 29.9294 19.9717 30.1186 19.9717 30.352C19.9717 30.5853 20.1609 30.7745 20.3942 30.7745Z" fill="#151515"/>
<path d="M17.859 27.394C17.859 27.6273 17.6698 27.8165 17.4365 27.8165C17.2031 27.8165 17.0139 27.6273 17.0139 27.394C17.0139 27.1606 17.2031 26.9714 17.4365 26.9714C17.6698 26.9714 17.859 27.1606 17.859 27.394Z" fill="#2C180D"/>
<path fill-rule="evenodd" clip-rule="evenodd" d="M17.4365 27.7743C17.6465 27.7743 17.8167 27.604 17.8167 27.394C17.8167 27.1839 17.6465 27.0137 17.4365 27.0137C17.2264 27.0137 17.0562 27.1839 17.0562 27.394C17.0562 27.604 17.2264 27.7743 17.4365 27.7743ZM17.4365 27.8165C17.6698 27.8165 17.859 27.6273 17.859 27.394C17.859 27.1606 17.6698 26.9714 17.4365 26.9714C17.2031 26.9714 17.0139 27.1606 17.0139 27.394C17.0139 27.6273 17.2031 27.8165 17.4365 27.8165Z" fill="#151515"/>
<path d="M18.0702 26.3376C18.0702 26.5709 17.881 26.7601 17.6476 26.7601C17.4143 26.7601 17.2251 26.5709 17.2251 26.3376C17.2251 26.1042 17.4143 25.915 17.6476 25.915C17.881 25.915 18.0702 26.1042 18.0702 26.3376Z" fill="#2C180D"/>
<path fill-rule="evenodd" clip-rule="evenodd" d="M17.6476 26.7179C17.8577 26.7179 18.0279 26.5476 18.0279 26.3376C18.0279 26.1276 17.8577 25.9573 17.6476 25.9573C17.4376 25.9573 17.2674 26.1276 17.2674 26.3376C17.2674 26.5476 17.4376 26.7179 17.6476 26.7179ZM17.6476 26.7601C17.881 26.7601 18.0702 26.5709 18.0702 26.3376C18.0702 26.1042 17.881 25.915 17.6476 25.915C17.4143 25.915 17.2251 26.1042 17.2251 26.3376C17.2251 26.5709 17.4143 26.7601 17.6476 26.7601Z" fill="#151515"/>
<path d="M19.7604 24.6474C19.7604 24.8807 19.5712 25.0699 19.3378 25.0699C19.1045 25.0699 18.9153 24.8807 18.9153 24.6474C18.9153 24.414 19.1045 24.2249 19.3378 24.2249C19.5712 24.2249 19.7604 24.414 19.7604 24.6474Z" fill="#2C180D"/>
<path fill-rule="evenodd" clip-rule="evenodd" d="M19.3378 25.0277C19.5478 25.0277 19.7181 24.8574 19.7181 24.6474C19.7181 24.4374 19.5478 24.2671 19.3378 24.2671C19.1278 24.2671 18.9575 24.4374 18.9575 24.6474C18.9575 24.8574 19.1278 25.0277 19.3378 25.0277ZM19.3378 25.0699C19.5712 25.0699 19.7604 24.8807 19.7604 24.6474C19.7604 24.414 19.5712 24.2249 19.3378 24.2249C19.1045 24.2249 18.9153 24.414 18.9153 24.6474C18.9153 24.8807 19.1045 25.0699 19.3378 25.0699Z" fill="#151515"/>
<path d="M18.7042 25.2814C18.7042 25.5148 18.515 25.704 18.2817 25.704C18.0483 25.704 17.8591 25.5148 17.8591 25.2814C17.8591 25.0481 18.0483 24.8589 18.2817 24.8589C18.515 24.8589 18.7042 25.0481 18.7042 25.2814Z" fill="#2C180D"/>
<path fill-rule="evenodd" clip-rule="evenodd" d="M18.2817 25.6617C18.4917 25.6617 18.6619 25.4914 18.6619 25.2814C18.6619 25.0714 18.4917 24.9011 18.2817 24.9011C18.0716 24.9011 17.9014 25.0714 17.9014 25.2814C17.9014 25.4914 18.0716 25.6617 18.2817 25.6617ZM18.2817 25.704C18.515 25.704 18.7042 25.5148 18.7042 25.2814C18.7042 25.0481 18.515 24.8589 18.2817 24.8589C18.0483 24.8589 17.8591 25.0481 17.8591 25.2814C17.8591 25.5148 18.0483 25.704 18.2817 25.704Z" fill="#151515"/>
<path d="M22.7184 26.3376C22.7184 26.5709 22.9076 26.7601 23.1409 26.7601C23.3743 26.7601 23.5635 26.5709 23.5635 26.3376C23.5635 26.1042 23.3743 25.915 23.1409 25.915C22.9076 25.915 22.7184 26.1042 22.7184 26.3376Z" fill="#2C180D"/>
<path fill-rule="evenodd" clip-rule="evenodd" d="M23.1409 26.7179C22.9309 26.7179 22.7607 26.5476 22.7607 26.3376C22.7607 26.1276 22.9309 25.9573 23.1409 25.9573C23.351 25.9573 23.5212 26.1276 23.5212 26.3376C23.5212 26.5476 23.351 26.7179 23.1409 26.7179ZM23.1409 26.7601C22.9076 26.7601 22.7184 26.5709 22.7184 26.3376C22.7184 26.1042 22.9076 25.915 23.1409 25.915C23.3743 25.915 23.5635 26.1042 23.5635 26.3376C23.5635 26.5709 23.3743 26.7601 23.1409 26.7601Z" fill="#151515"/>
<path d="M22.7184 28.4505C22.7184 28.2172 22.9076 28.028 23.1409 28.028C23.3743 28.028 23.5635 28.2172 23.5635 28.4505C23.5635 28.6839 23.3743 28.873 23.1409 28.873C22.9076 28.873 22.7184 28.6839 22.7184 28.4505Z" fill="#2C180D"/>
<path fill-rule="evenodd" clip-rule="evenodd" d="M23.1409 28.0702C22.9309 28.0702 22.7607 28.2405 22.7607 28.4505C22.7607 28.6605 22.9309 28.8308 23.1409 28.8308C23.351 28.8308 23.5212 28.6605 23.5212 28.4505C23.5212 28.2405 23.351 28.0702 23.1409 28.0702ZM23.1409 28.028C22.9076 28.028 22.7184 28.2172 22.7184 28.4505C22.7184 28.6839 22.9076 28.873 23.1409 28.873C23.3743 28.873 23.5635 28.6839 23.5635 28.4505C23.5635 28.2172 23.3743 28.028 23.1409 28.028Z" fill="#151515"/>
<path d="M18.0702 28.4505C18.0702 28.2172 17.881 28.028 17.6476 28.028C17.4143 28.028 17.2251 28.2172 17.2251 28.4505C17.2251 28.6839 17.4143 28.873 17.6476 28.873C17.881 28.873 18.0702 28.6839 18.0702 28.4505Z" fill="#2C180D"/>
<path fill-rule="evenodd" clip-rule="evenodd" d="M17.6476 28.0702C17.8577 28.0702 18.0279 28.2405 18.0279 28.4505C18.0279 28.6605 17.8577 28.8308 17.6476 28.8308C17.4376 28.8308 17.2674 28.6605 17.2674 28.4505C17.2674 28.2405 17.4376 28.0702 17.6476 28.0702ZM17.6476 28.028C17.881 28.028 18.0702 28.2172 18.0702 28.4505C18.0702 28.6839 17.881 28.873 17.6476 28.873C17.4143 28.873 17.2251 28.6839 17.2251 28.4505C17.2251 28.2172 17.4143 28.028 17.6476 28.028Z" fill="#151515"/>
<path d="M21.0282 24.6474C21.0282 24.8807 21.2174 25.0699 21.4508 25.0699C21.6841 25.0699 21.8733 24.8807 21.8733 24.6474C21.8733 24.414 21.6841 24.2249 21.4508 24.2249C21.2174 24.2249 21.0282 24.414 21.0282 24.6474Z" fill="#2C180D"/>
<path fill-rule="evenodd" clip-rule="evenodd" d="M21.4508 25.0277C21.2407 25.0277 21.0705 24.8574 21.0705 24.6474C21.0705 24.4374 21.2407 24.2671 21.4508 24.2671C21.6608 24.2671 21.831 24.4374 21.831 24.6474C21.831 24.8574 21.6608 25.0277 21.4508 25.0277ZM21.4508 25.0699C21.2174 25.0699 21.0282 24.8807 21.0282 24.6474C21.0282 24.414 21.2174 24.2249 21.4508 24.2249C21.6841 24.2249 21.8733 24.414 21.8733 24.6474C21.8733 24.8807 21.6841 25.0699 21.4508 25.0699Z" fill="#151515"/>
<path d="M21.0282 30.1407C21.0282 29.9073 21.2174 29.7182 21.4508 29.7182C21.6841 29.7182 21.8733 29.9073 21.8733 30.1407C21.8733 30.3741 21.6841 30.5632 21.4508 30.5632C21.2174 30.5632 21.0282 30.3741 21.0282 30.1407Z" fill="#2C180D"/>
<path fill-rule="evenodd" clip-rule="evenodd" d="M21.4508 29.7604C21.2407 29.7604 21.0705 29.9307 21.0705 30.1407C21.0705 30.3507 21.2407 30.521 21.4508 30.521C21.6608 30.521 21.831 30.3507 21.831 30.1407C21.831 29.9307 21.6608 29.7604 21.4508 29.7604ZM21.4508 29.7182C21.2174 29.7182 21.0282 29.9073 21.0282 30.1407C21.0282 30.3741 21.2174 30.5632 21.4508 30.5632C21.6841 30.5632 21.8733 30.3741 21.8733 30.1407C21.8733 29.9073 21.6841 29.7182 21.4508 29.7182Z" fill="#151515"/>
<path d="M19.7604 30.1407C19.7604 29.9073 19.5712 29.7182 19.3378 29.7182C19.1045 29.7182 18.9153 29.9073 18.9153 30.1407C18.9153 30.3741 19.1045 30.5632 19.3378 30.5632C19.5712 30.5632 19.7604 30.3741 19.7604 30.1407Z" fill="#2C180D"/>
<path fill-rule="evenodd" clip-rule="evenodd" d="M19.3378 29.7604C19.5478 29.7604 19.7181 29.9307 19.7181 30.1407C19.7181 30.3507 19.5478 30.521 19.3378 30.521C19.1278 30.521 18.9575 30.3507 18.9575 30.1407C18.9575 29.9307 19.1278 29.7604 19.3378 29.7604ZM19.3378 29.7182C19.5712 29.7182 19.7604 29.9073 19.7604 30.1407C19.7604 30.3741 19.5712 30.5632 19.3378 30.5632C19.1045 30.5632 18.9153 30.3741 18.9153 30.1407C18.9153 29.9073 19.1045 29.7182 19.3378 29.7182Z" fill="#151515"/>
<path d="M22.0846 25.2814C22.0846 25.5148 22.2738 25.704 22.5072 25.704C22.7405 25.704 22.9297 25.5148 22.9297 25.2814C22.9297 25.0481 22.7405 24.8589 22.5072 24.8589C22.2738 24.8589 22.0846 25.0481 22.0846 25.2814Z" fill="#2C180D"/>
<path fill-rule="evenodd" clip-rule="evenodd" d="M22.5072 25.6617C22.2971 25.6617 22.1269 25.4914 22.1269 25.2814C22.1269 25.0714 22.2971 24.9011 22.5072 24.9011C22.7172 24.9011 22.8874 25.0714 22.8874 25.2814C22.8874 25.4914 22.7172 25.6617 22.5072 25.6617ZM22.5072 25.704C22.2738 25.704 22.0846 25.5148 22.0846 25.2814C22.0846 25.0481 22.2738 24.8589 22.5072 24.8589C22.7405 24.8589 22.9297 25.0481 22.9297 25.2814C22.9297 25.5148 22.7405 25.704 22.5072 25.704Z" fill="#151515"/>
<path d="M22.0846 29.5069C22.0846 29.2735 22.2738 29.0844 22.5072 29.0844C22.7405 29.0844 22.9297 29.2735 22.9297 29.5069C22.9297 29.7403 22.7405 29.9294 22.5072 29.9294C22.2738 29.9294 22.0846 29.7403 22.0846 29.5069Z" fill="#2C180D"/>
<path fill-rule="evenodd" clip-rule="evenodd" d="M22.5072 29.1266C22.2971 29.1266 22.1269 29.2969 22.1269 29.5069C22.1269 29.7169 22.2971 29.8872 22.5072 29.8872C22.7172 29.8872 22.8874 29.7169 22.8874 29.5069C22.8874 29.2969 22.7172 29.1266 22.5072 29.1266ZM22.5072 29.0844C22.2738 29.0844 22.0846 29.2735 22.0846 29.5069C22.0846 29.7403 22.2738 29.9294 22.5072 29.9294C22.7405 29.9294 22.9297 29.7403 22.9297 29.5069C22.9297 29.2735 22.7405 29.0844 22.5072 29.0844Z" fill="#151515"/>
<path d="M18.7042 29.5069C18.7042 29.2735 18.515 29.0844 18.2817 29.0844C18.0483 29.0844 17.8591 29.2735 17.8591 29.5069C17.8591 29.7403 18.0483 29.9294 18.2817 29.9294C18.515 29.9294 18.7042 29.7403 18.7042 29.5069Z" fill="#2C180D"/>
<path fill-rule="evenodd" clip-rule="evenodd" d="M18.2817 29.1266C18.4917 29.1266 18.6619 29.2969 18.6619 29.5069C18.6619 29.7169 18.4917 29.8872 18.2817 29.8872C18.0716 29.8872 17.9014 29.7169 17.9014 29.5069C17.9014 29.2969 18.0716 29.1266 18.2817 29.1266ZM18.2817 29.0844C18.515 29.0844 18.7042 29.2735 18.7042 29.5069C18.7042 29.7403 18.515 29.9294 18.2817 29.9294C18.0483 29.9294 17.8591 29.7403 17.8591 29.5069C17.8591 29.2735 18.0483 29.0844 18.2817 29.0844Z" fill="#151515"/>
<path fill-rule="evenodd" clip-rule="evenodd" d="M23.1006 24.439C22.8381 24.1765 22.4199 24.1188 22.139 24.3616C22.1089 24.3876 22.0805 24.4136 22.0549 24.439C21.9057 24.5872 21.8309 24.7372 21.7561 24.8872C21.6813 25.0371 21.6066 25.1871 21.4573 25.3353C21.3623 25.4298 21.2284 25.5321 21.1115 25.615C20.413 25.3038 19.5654 25.4346 18.9924 26.0076C18.2499 26.7501 18.2499 27.954 18.9924 28.6966C19.735 29.4391 20.9389 29.4391 21.6814 28.6966C22.2544 28.1236 22.3852 27.276 22.074 26.5775C22.1569 26.4606 22.2592 26.3267 22.3537 26.2317C22.5019 26.0824 22.6519 26.0077 22.8018 25.9329C22.9518 25.8581 23.1018 25.7833 23.25 25.6341C23.2974 25.5864 23.3468 25.5288 23.3948 25.4686C23.5874 25.2265 23.5435 24.8818 23.3247 24.6631L22.1583 25.5703C22.138 25.5861 22.1125 25.5589 22.1294 25.5397L23.1006 24.439Z" fill="white"/>
<path fill-rule="evenodd" clip-rule="evenodd" d="M23.1006 24.439C22.8381 24.1765 22.4199 24.1188 22.139 24.3616C22.1089 24.3876 22.0805 24.4136 22.0549 24.439C21.9057 24.5872 21.8309 24.7372 21.7561 24.8872C21.6813 25.0371 21.6066 25.1871 21.4573 25.3353C21.3623 25.4298 21.2284 25.5321 21.1115 25.615C20.413 25.3038 19.5654 25.4346 18.9924 26.0076C18.2499 26.7501 18.2499 27.954 18.9924 28.6966C19.735 29.4391 20.9389 29.4391 21.6814 28.6966C22.2544 28.1236 22.3852 27.276 22.074 26.5775C22.1569 26.4606 22.2592 26.3267 22.3537 26.2317C22.5019 26.0824 22.6519 26.0077 22.8018 25.9329C22.9518 25.8581 23.1018 25.7833 23.25 25.6341C23.2974 25.5864 23.3468 25.5288 23.3948 25.4686C23.5874 25.2265 23.5435 24.8818 23.3247 24.6631L22.1583 25.5703C22.138 25.5861 22.1125 25.5589 22.1294 25.5397L23.1006 24.439ZM23.3174 24.749L22.1972 25.6203C22.1162 25.6833 22.014 25.5747 22.0819 25.4977L23.0121 24.4435C22.7681 24.2351 22.4166 24.2055 22.1804 24.4095C22.1512 24.4348 22.1239 24.4598 22.0996 24.484C21.9585 24.6241 21.8876 24.7655 21.8128 24.9154L21.8118 24.9176C21.7373 25.0669 21.6586 25.2247 21.502 25.3803C21.4031 25.4786 21.2657 25.5833 21.1482 25.6667L21.1187 25.6876L21.0857 25.6729C20.4104 25.372 19.591 25.4986 19.0372 26.0524C18.3194 26.7702 18.3194 27.934 19.0372 28.6518C19.755 29.3696 20.9188 29.3696 21.6366 28.6518C22.1904 28.098 22.317 27.2786 22.0161 26.6033L22.0014 26.5703L22.0223 26.5408C22.1057 26.4233 22.2104 26.2859 22.3087 26.187C22.4643 26.0304 22.6221 25.9517 22.7714 25.8772L22.7736 25.8762C22.9235 25.8014 23.0649 25.7305 23.205 25.5894C23.2503 25.5439 23.2981 25.4883 23.3452 25.4291C23.5036 25.2301 23.4831 24.9479 23.3174 24.749Z" fill="#202020"/>
<path d="M27.072 20.1494L27.9683 21.0457L26.6238 22.3902L26.3251 22.3902L25.2793 22.5396L25.4287 21.4939L25.7275 21.4939L27.072 20.1494Z" fill="white"/>
<path d="M25.7273 21.4939L26.6236 22.3902H26.3248L25.4285 21.4939L25.7273 21.4939Z" fill="#D7CDD5"/>
<defs>
<filter id="filter0_d_44_609" x="2.5" y="6" width="35.8252" height="42.5" filterUnits="userSpaceOnUse" color-interpolation-filters="sRGB">
<feFlood flood-opacity="0" result="BackgroundImageFix"/>
<feColorMatrix in="SourceAlpha" type="matrix" values="0 0 0 0 0 0 0 0 0 0 0 0 0 0 0 0 0 0 127 0" result="hardAlpha"/>
<feOffset dx="0.5"/>
<feGaussianBlur stdDeviation="0.5"/>
<feComposite in2="hardAlpha" operator="out"/>
<feColorMatrix type="matrix" values="0 0 0 0 0 0 0 0 0 0 0 0 0 0 0 0 0 0 0.25 0"/>
<feBlend mode="normal" in2="BackgroundImageFix" result="effect1_dropShadow_44_609"/>
<feBlend mode="normal" in="SourceGraphic" in2="effect1_dropShadow_44_609" result="shape"/>
</filter>
</defs>
</svg>
